<?xml version="1.0" encoding="utf-8"?>
<!-- Generator: Adobe Illustrator 15.0.2, SVG Export Plug-In . SVG Version: 6.00 Build 0)  -->
<!DOCTYPE svg PUBLIC "-//W3C//DTD SVG 1.1//EN" "http://www.w3.org/Graphics/SVG/1.1/DTD/svg11.dtd">
<svg version="1.1" xmlns="http://www.w3.org/2000/svg" xmlns:xlink="http://www.w3.org/1999/xlink" x="0px" y="0px" width="200px"
	 height="200px" viewBox="0 0 200 200" enable-background="new 0 0 200 200" xml:space="preserve">
<g id="ACSBox">
	<polygon fill="#5E3052" points="40.303,60 10,90 10,200 190,200 190,90 159.303,60 	"/>
	<rect x="10" y="90" fill="#893052" width="180" height="110"/>
	<polyline fill="#999999" points="10,110 30,90 50,60 60,60 50,90 10,130 	"/>
	<polyline fill="#999999" points="150,200 190,150 190,170 170,200 	"/>
	<polygon fill="#6F7172" points="30,90 50,90 60,60 50,60 	"/>
	<path fill="#4F5354" d="M37.143,79.141c0,0-7.143-4.143-7.143-14.142c0-14.142,4.285-20,10-10c5.714,10,2.857,24.142,2.857,24.142
		S44.286,74.999,50,64.999c5.715-10,20-10,20,0c0,10-21.429,14.142-21.429,14.142"/>
	<path fill="#6A7172" d="M42.857,79.141c0,0,7.143-4.143,7.143-14.142c0-14.142-4.285-20-10-10c-5.714,10-2.857,24.142-2.857,24.142
		S35.714,74.999,30,64.999c-5.715-10-20-10-20,0c0,10,21.429,14.142,21.429,14.142"/>
	<path fill="#999999" d="M37.143,80C37.143,80,20,70,20,60c0-10,5.714-20,11.429-10c5.714,10,11.428,30,11.428,30s0-20,5.714-30
		C54.286,40,60,50,60,60c0,10-11.429,20-11.429,20"/>
	<g>
		<path fill="#FFFFFF" d="M55,120c-13.807,0-25,11.193-25,25c0,13.808,11.193,25,25,25s25-11.192,25-25
			C80,131.193,68.807,120,55,120z M55,167.223c-12.273,0-22.222-9.949-22.222-22.223S42.727,122.778,55,122.778
			S77.222,132.727,77.222,145S67.273,167.223,55,167.223z"/>
		<path fill="#FFFFFF" d="M55,120l-13.889,44.444L55,154.027l13.889,10.417L55,120z M48.75,153.334l6.25-20.14l6.25,20.14
			L55,148.473L48.75,153.334z"/>
	</g>
	<g>
		<path fill="#FFFFFF" d="M113.011,160l-3.054-8.493H98.263L95.271,160H90l11.442-30.709h5.438L118.324,160H113.011z
			 M108.639,147.197l-2.865-8.325c-0.21-0.558-0.5-1.437-0.869-2.636s-0.624-2.078-0.764-2.636
			c-0.376,1.715-0.928,3.591-1.652,5.627l-2.761,7.97H108.639z"/>
		<path fill="#FFFFFF" d="M135.373,133.266c-2.873,0-5.132,1.019-6.777,3.055c-1.646,2.036-2.469,4.846-2.469,8.43
			c0,3.752,0.791,6.59,2.374,8.514c1.583,1.925,3.873,2.888,6.872,2.888c1.297,0,2.552-0.129,3.766-0.388
			c1.213-0.258,2.475-0.589,3.786-0.993v4.288c-2.398,0.907-5.118,1.359-8.158,1.359c-4.477,0-7.915-1.355-10.313-4.068
			c-2.398-2.712-3.598-6.593-3.598-11.642c0-3.18,0.582-5.962,1.747-8.347c1.164-2.385,2.848-4.211,5.052-5.48
			c2.203-1.269,4.79-1.903,7.761-1.903c3.124,0,6.011,0.655,8.66,1.966l-1.799,4.163c-1.032-0.488-2.123-0.917-3.273-1.286
			C137.852,133.451,136.642,133.266,135.373,133.266z"/>
		<path fill="#FFFFFF" d="M167.148,151.695c0,2.72-0.983,4.854-2.949,6.401c-1.967,1.548-4.68,2.321-8.138,2.321
			c-3.459,0-6.29-0.536-8.493-1.61v-4.728c1.395,0.655,2.876,1.171,4.445,1.548s3.029,0.564,4.383,0.564
			c1.979,0,3.44-0.376,4.382-1.129s1.412-1.765,1.412-3.033c0-1.144-0.433-2.113-1.297-2.908s-2.649-1.736-5.355-2.824
			c-2.789-1.129-4.755-2.419-5.898-3.87c-1.144-1.45-1.716-3.193-1.716-5.229c0-2.552,0.906-4.56,2.72-6.024
			c1.813-1.464,4.246-2.196,7.301-2.196c2.929,0,5.843,0.642,8.744,1.925l-1.59,4.079c-2.72-1.144-5.146-1.716-7.28-1.716
			c-1.617,0-2.845,0.353-3.682,1.057s-1.255,1.635-1.255,2.793c0,0.795,0.167,1.475,0.502,2.039s0.886,1.099,1.652,1.601
			c0.768,0.502,2.147,1.164,4.143,1.987c2.245,0.935,3.891,1.806,4.937,2.614c1.046,0.81,1.813,1.723,2.301,2.741
			C166.904,149.115,167.148,150.314,167.148,151.695z"/>
	</g>
</g>
</svg>
