<?xml version="1.0" encoding="utf-8"?>
<!-- Generator: Adobe Illustrator 15.0.2, SVG Export Plug-In . SVG Version: 6.00 Build 0)  -->
<!DOCTYPE svg PUBLIC "-//W3C//DTD SVG 1.1//EN" "http://www.w3.org/Graphics/SVG/1.1/DTD/svg11.dtd">
<svg version="1.1" xmlns="http://www.w3.org/2000/svg" xmlns:xlink="http://www.w3.org/1999/xlink" x="0px" y="0px" width="800px"
	 height="800px" viewBox="0 0 800 800" enable-background="new 0 0 800 800" xml:space="preserve" preserveAspectRatio="xMidYMid meet">
<g id="Layer_1">
	<polyline points="369,200 375,175 397,178 428.667,138.667 428,117 434,99 456,103 489,59 590.667,258.333 	"/>
	<polygon points="156,145 166,129 193,153 565,238 694,312 698,320 689,324 145,247 	"/>
	<polygon fill="#465FA1" points="385,253 226.667,218 214,728 382.889,723 	"/>
	<polygon fill="#38528F" points="382,254.164 489.5,245 492.25,729 382,724.962 	"/>
	<polygon fill="#465FA1" points="492,728 581,724 579,266 489,245 	"/>
	<polygon fill="#465FA1" points="598.291,716 699,716 692.896,319.25 593.205,305.375 	"/>
	<polygon fill="#4E69A8" points="578.25,266.25 594.456,305 600,716.5 578.934,724 	"/>
	<polyline fill="#465FA1" points="174,130 186,118 194,134 193,153 173,149 	"/>
	<polyline fill="#465FA1" points="228,173.25 241,154.125 250,176.563 248,231 225,231 	"/>
	<polygon fill="#465FA1" points="370,238 370,196 374.5,175 379.75,187 401.875,191 441.938,139 428.636,138.333 427.984,117 
		432.992,100 437.996,109 454.665,112.667 490,65 526,134 537,138 535,171 585,255 491,230 393.5,245 	"/>
	<polygon fill="#414D81" points="161,161 174,130 175.598,178.965 	"/>
	<polygon fill="#414D81" points="210.286,207.411 228.798,172.904 226.105,230.482 	"/>
	<polygon fill="#414D81" points="110,709 118.092,363 157.541,145 227.333,218 215.195,728 	"/>
	<path fill="#6378C7" d="M792,734.75c8-9.25-30.55-30.952-70.5-34.75c-27.35-2.6-38.138,7.935-63.757,10.319
		c-21.297,1.982-66.857-18.905-79.341,5.993c-27.002,3.699-49.915,1.4-77.817,0.262c-29.769-1.214-60.322,7.677-88.423,5.995
		c-18.086-1.083-22.012-10.72-40.643-7.829c-17.386,2.698-35.35,3.869-52.495,6.411c-26.005,3.856-56.843-1.429-83.686-1.429l0,0
		c-12.82,0.021-16.814-1.279-27.394-5.939c-10.163-4.477-11.335-6.143-23.791-6.208c-16.028-0.084-31.103-1.091-46.884-4.083
		c-16.775-3.182-31.112-8.711-47.629-9.416c-6.891-0.294-19.028-1.971-25.229,0.638c-6.541,2.752-10.712,11.593-21.061,14.623
		c-2.446,12.861,13.675,19.405,23.756,22.314c17.291,4.99,27.451,6.769,43.493,16.417c15.47,9.304,28.738,8.637,46.503,9.004
		c15.699,0.325,31.333,3.939,46.126,7.566c2.135,7.413,23.172,15.592,31.865,19.094c8.67,3.492,15.804,3.362,25.248,3.339
		c19.809-0.048,38.495,3.237,58.067,4.5c31.934,2.061,64.01-1.907,95.214,2.964c19.715,3.078,44.177,3.526,64.307,1.589
		c27.188-2.616,51.778-25.879,81.153-20.831c8.758,1.505,18.344,9.225,28.833,10.278c7.904,0.794,14.646-0.758,22.101-1.868
		C669.859,774.784,747.863,773.982,792,734.75L792,734.75z"/>
	<polygon fill="#1A1B1C" points="331,511 291,506 291,424 331,430 	"/>
	<polygon fill="#1A1B1C" points="331,655 291,655 291,573 331,575 	"/>
	<polygon fill="#E8A070" points="331,366 291,359 291,277 331,285 	"/>
	<polygon fill="#E8A070" points="461,370.213 422,373.485 422,298.667 461,293.356 	"/>
	<polygon fill="#1A1B1C" points="461,508.213 422,509.484 422,434.666 461,431.356 	"/>
	<polygon fill="#1A1B1C" points="461,656.213 422,655.484 422,580.666 461,579.356 	"/>
	
		<ellipse transform="matrix(0.8687 -0.4953 0.4953 0.8687 -15.3719 261.3346)" fill="#E8A070" cx="485.333" cy="159.667" rx="12" ry="14.333"/>
	<polygon fill="#1A1B1C" points="550,516.746 510,512.77 510,430.481 550,435.463 	"/>
	<polygon fill="#1A1B1C" points="550,655 510,655 510,576.56 550,577.523 	"/>
	<polygon fill="#E8A070" points="550,379.861 510,373.108 510,294 550,301.718 	"/>
	<polygon fill="#E8A070" points="505,232.078 491.012,228.5 465,232.675 465,192 505,199.718 	"/>
	<polygon fill="#1A1B1C" points="658,536.505 622,532.943 622,459.241 658,463.703 	"/>
	<polygon fill="#1A1B1C" points="658,660 622,660 622,590.078 658,590.941 	"/>
	<polygon fill="#E8A070" points="658,413.902 622,407.854 622,337 658,343.913 	"/>
	<polygon opacity="0.25" fill="#29AAE1" stroke="#000000" stroke-miterlimit="10" points="383.5,224 397.75,212 489.875,197 
		578.938,222 590.969,257 592.984,279 584.992,255 490.996,230 397.748,245 383.5,242 	"/>
</g>
</svg>
