<?xml version="1.0" encoding="utf-8"?>
<!-- Generator: Adobe Illustrator 15.0.2, SVG Export Plug-In . SVG Version: 6.00 Build 0)  -->
<!DOCTYPE svg PUBLIC "-//W3C//DTD SVG 1.1//EN" "http://www.w3.org/Graphics/SVG/1.1/DTD/svg11.dtd">
<svg version="1.1" id="Layer_1" xmlns="http://www.w3.org/2000/svg" xmlns:xlink="http://www.w3.org/1999/xlink" x="0px" y="0px"
	 width="561.694px" height="184.164px" viewBox="0 0 561.694 184.164" enable-background="new 0 0 561.694 184.164"
	 xml:space="preserve">
<path d="M561.68,76.244c-0.208-1.855-3.271-3.08-6.605-1.891c-3.332,1.19-6.588,2.511-6.929,1.186
	c-0.313-1.226-0.127-6.373-2.408-10.666c1.468,0.138,2.884,0.225,4.204,0.242c-1.033-0.013-2.597-0.263-4.438-0.659
	c-0.118-0.205-0.236-0.41-0.366-0.609c-2.924-4.455-8.882-11.141-8.399-13.05c0.48-1.906,1.143-2.303,4.873-3.73
	c3.731-1.426,6.162-0.813,7.985-0.917c1.825-0.104,4.527-2.354,3.846-4.555c-0.682-2.199-4.963-2.603-7.868-3.56
	c-2.511-0.828-3.266-1.633-4.369-2.112c0.353-0.486,0.989-0.875,2.144-1.099c3.665-0.711,4.243,0.336,6.72-1.688
	c2.477-2.024,1.943-0.355,2.069-3.084s-0.278-4.692-0.278-4.692s-1.03,0.078-1.684,1.999c-0.652,1.92-0.923,3.882-2.004,2.595
	c-1.079-1.286-1.088-3.036-1.425-0.811c-0.335,2.226,0.033,2.544-1.552,1.92c-1.583-0.625-2.838-1.222-1.276-2.068
	c1.563-0.846,3.294-1.479,4.417-5.93c1.122-4.452,0.175-6.042,0.175-6.042s-2.782,2.792-2.257,3.825
	c0.526,1.034,1.158,0.969-0.003,1.126c-1.163,0.158-2.3-0.467-2.23-1.633c0.07-1.166-2.109-2.11-2.191-1.116
	c-0.08,0.995-2.091,0.938-0.376,2.384c1.715,1.447,3.338,2.813,1.973,4.442c-1.367,1.628-2.596,1.6-2.56,3.244
	c0.033,1.643,0.694,2.147-0.867,2.543c-1.56,0.395-2.386,0.091-2.647,1.362c-0.079,0.39-0.142,0.849-0.186,1.296
	c-0.854-0.281-1.711-0.527-2.435-0.633c-0.757-0.86-1.374-1.804-1.286-2.774c0.19-2.094-1.301-3.54-0.842-6.242
	c0.455-2.702,1.076-7.393,3.036-8.927c1.959-1.536,2.28-2.807,5.669-4.659c3.388-1.851,4.114-6.964,4.114-6.964
	s-2.11-0.759-3.001,0.314c-0.887,1.072-1.658,2.567-2.038,1.401c-0.381-1.167,0.864-1.642,0.111-2.451
	c-0.751-0.81-2.124-1.832-2.124-1.832s-0.281,1.339,0.284,2.89s1.093,1.684,0.14,2.121c-0.953,0.437-2.036,0.726-2.164-1.447
	c-0.126-2.174,1.182-2.238-0.137-3.021C535.173,1.486,533.3,0,533.3,0s-0.851,1.59,0.057,3.34c0.908,1.751,2.1,1.486,2.149,2.626
	c0.049,1.14,1.013,1.326-0.337,2.677c-1.353,1.351-1.646,2.516-2.146,0.925c-0.498-1.59,0.402-1.59-0.877-2.982
	c-1.279-1.393-1.182-2.891-1.182-2.891s-1.378,1.231-0.632,3.393c0.748,2.16,1.687,2.903,1.934,3.699
	c0.249,0.794,1.673,2.957,0.122,4.426s-2.267,2.077-3.044,1.149c-0.777-0.929-2.009-0.105-2.009-0.105l-0.004,0
	c0.028-0.51-0.211-1.322,0.881-2.095c1.642-1.164,1.357-3.603,1.357-3.603s-0.223-0.227-1.324,1.243
	c-1.101,1.471-0.64,2.317-1.788,1.973c-1.149-0.347-1.664-0.983-0.484-2.094c1.179-1.112,0.958-2.464,0.958-2.464
	s-1.427-0.358-2.052,1.005s-1.101,1.469-1.101,1.469s-0.819-0.093-0.232-1.974c0.198-0.637-0.035-1.02-0.444-1.3
	c-0.799-0.548-2.275-0.706-2.535-1.593c-0.395-1.339-0.798-3.301-2.769-3.064c-1.97,0.236-2.063,0.157-2.063,0.157
	s-0.109,2.226,1.66,3.011c1.769,0.783,0.482,1.642,0.744,3.061c0.262,1.419,0.978,0.81,0.482,2.545
	c-0.492,1.735-0.245,2.755-1.592,2.528c-1.349-0.226-1.774,0.794-2.282-1.646c-0.511-2.439,0.31-2.344-0.745-3.511
	c-1.055-1.167-1.327-2.758-1.327-2.758s-0.917,2.08-0.46,3.604c0.46,1.524,1.095,0.331,1.146,1.923
	c0.049,1.59,0.073,2.16,0.548,2.956c0.474,0.796,1.927,0.824,1.857,1.99c-0.067,1.167-2.223,1.919-2.359,3.124
	c-0.137,1.206,0.908,1.075-1.471,0.701c-2.378-0.374-2.67,0.342-3.459-1.436c-0.788-1.776-2.005-1.183-2.333-1.884
	c-0.33-0.703,0.321-1.948-1.33-2.533c-1.649-0.585-1.794-0.904-1.876-0.586c-0.079,0.319-0.004,2.253,1.116,2.93
	c1.122,0.678,1.214,0.982,1.214,0.982s-0.846,0.688-2.696,0.222c-1.85-0.465-4.395,2.5-4.395,2.5s2.337,1.209,4.2,0.721
	c1.866-0.488,1.632-2.013,3.429-1.56c1.795,0.453,0.804,0.823,2.68,1.183c1.876,0.36,0.987,2.108,1.816,3.275
	c0.829,1.167,2.062,0.744,1.907,3.355c-0.151,2.61,0.829,6.746,2.027,8.23c1.198,1.486,2.902,2.311,2.146,3.078
	c-0.756,0.768-0.662,1.072-2.093,1.614c-1.428,0.541-0.876,1.695-0.876,1.695s2.15,1.725,3.568,0.11
	c1.419-1.615,0.945-2.86,3.943-1.824c0.696,0.241,1.44,0.419,2.176,0.55c1.219,0.217,2.408,0.304,3.29,0.336
	c-1.207,4.091-2.667,9.42-2.497,10.739c0.187,1.451,0.833,3.396,0.763,4.699c-0.426-0.185-0.821-0.363-1.176-0.533
	c-6.393-3.168-13.716-3.998-20.759-4.159c-8.545-0.181-17.086,0.689-25.548,1.78c-12.484,1.624-25.029,4.195-37.628,5.347
	c-3.104-3.692-6.609-7.641-6.328-9.094c0.375-1.932,1.014-2.365,4.659-3.997c3.646-1.632,6.106-1.156,7.922-1.361
	c1.816-0.205,4.389-2.603,3.586-4.761c-0.803-2.159-5.1-2.323-8.055-3.118c-2.552-0.686-3.351-1.447-4.479-1.863
	c0.323-0.505,0.939-0.93,2.08-1.218c3.617-0.913,4.253,0.1,6.613-2.059c2.359-2.159,1.921-0.463,1.896-3.195
	c-0.025-2.733-0.539-4.669-0.539-4.669s-1.025,0.135-1.57,2.09c-0.545,1.953-0.705,3.926-1.854,2.702
	c-1.153-1.225-1.258-2.971-1.469-0.729c-0.214,2.241,0.173,2.538-1.443,2.003c-1.617-0.536-2.901-1.063-1.39-1.995
	c1.513-0.932,3.208-1.66,4.079-6.167c0.872-4.506-0.162-6.042-0.162-6.042s-2.623,2.942-2.04,3.944
	c0.582,1.003,1.212,0.903,0.06,1.125c-1.154,0.222-2.321-0.338-2.318-1.507c0.006-1.168-2.223-1.988-2.249-0.992
	c-0.025,0.997-2.035,1.053-0.242,2.402c1.792,1.349,3.488,2.623,2.216,4.325c-1.273,1.702-2.503,1.743-2.376,3.38
	c0.126,1.64,0.813,2.106-0.723,2.587c-1.537,0.482-2.377,0.225-2.566,1.508c-0.06,0.394-0.095,0.856-0.116,1.304
	c-0.866-0.233-1.736-0.431-2.465-0.497c-0.804-0.817-1.473-1.726-1.438-2.699c0.073-2.101-1.494-3.461-1.189-6.185
	s0.664-7.441,2.535-9.083c1.871-1.641,2.122-2.929,5.401-4.965c3.279-2.036,3.721-7.183,3.721-7.183s-2.151-0.641-2.979,0.479
	c-0.826,1.12-1.513,2.657-1.957,1.514c-0.442-1.143,0.771-1.687-0.023-2.454c-0.797-0.766-2.225-1.711-2.225-1.711
	s-0.206,1.352,0.444,2.87c0.651,1.518,1.186,1.621,0.259,2.109c-0.927,0.488-1.993,0.839-2.241-1.324
	c-0.247-2.165,1.056-2.301-0.305-3.009c-1.361-0.708-3.314-2.088-3.314-2.088s-0.761,1.633,0.243,3.33
	c1.004,1.697,2.178,1.368,2.29,2.503c0.113,1.135,1.088,1.268-0.188,2.691c-1.273,1.423-1.503,2.603-2.088,1.042
	c-0.586-1.561,0.313-1.61-1.043-2.929c-1.355-1.319-1.34-2.82-1.34-2.82s-1.309,1.306-0.441,3.421
	c0.866,2.115,1.844,2.806,2.138,3.586c0.291,0.78,1.832,2.859,0.366,4.412c-1.467,1.554-2.147,2.201-2.976,1.317
	c-0.827-0.884-2.013,0.006-2.013,0.006v0.001c-0.003-0.512-0.286-1.308,0.761-2.142c1.573-1.253,1.153-3.672,1.153-3.672
	s-0.233-0.213-1.251,1.314c-1.019,1.529-0.512,2.352-1.678,2.068c-1.166-0.281-1.715-0.888-0.6-2.064
	c1.117-1.174,0.82-2.512,0.82-2.512s-1.443-0.279-1.993,1.117c-0.267,0.683-0.517,1.063-0.702,1.274
	c-0.192,0.221-0.314,0.254-0.314,0.254s-0.823-0.047-0.342-1.958c0.479-1.912-2.67-1.407-3.137-2.723
	c-0.467-1.315-0.979-3.251-2.934-2.906c-1.955,0.345-2.052,0.272-2.052,0.272s0.014,2.229,1.823,2.913
	c1.811,0.684,0.575,1.613,0.915,3.016c0.34,1.401,1.021,0.754,0.623,2.514c-0.396,1.759-0.093,2.765-1.449,2.614
	c-1.358-0.152-1.728,0.89-2.37-1.517c-0.644-2.407,0.179-2.358-0.939-3.466c-1.116-1.106-1.479-2.679-1.479-2.679
	s-0.8,2.127-0.257,3.623c0.544,1.497,1.111,0.271,1.25,1.856c0.136,1.585,0.193,2.153,0.71,2.922
	c0.518,0.768,1.973,0.714,1.968,1.883c-0.004,1.168-2.115,2.04-2.183,3.25c-0.068,1.211,0.968,1.023-1.429,0.782
	c-2.396-0.242-2.648,0.489-3.533-1.242c-0.886-1.73-2.07-1.068-2.437-1.752c-0.368-0.682,0.214-1.961-1.467-2.454
	c-1.682-0.492-1.843-0.803-1.905-0.481c-0.062,0.324,0.119,2.25,1.276,2.864c1.158,0.615,1.267,0.913,1.267,0.913
	s-0.808,0.734-2.68,0.372c-1.873-0.362-4.249,2.74-4.249,2.74s2.401,1.077,4.234,0.485c1.836-0.59,1.518-2.1,3.335-1.747
	c1.82,0.352,0.85,0.776,2.743,1.031c1.893,0.256,1.103,2.051,1.995,3.17c0.895,1.118,2.099,0.629,2.092,3.244
	c-0.006,2.614,1.202,6.689,2.481,8.105c1.28,1.417,3.025,2.145,2.314,2.953c-0.71,0.809-0.603,1.107-1.998,1.728
	c-1.397,0.62-0.782,1.741-0.782,1.741s2.243,1.604,3.571-0.087c1.324-1.692,0.784-2.91,3.834-2.041
	c0.487,0.139,0.994,0.246,1.503,0.328c1.468,0.238,2.956,0.271,4.004,0.252c-0.978,4.152-2.139,9.554-1.895,10.861
	c0.406,2.195,1.986,5.505,0.214,6.054c-0.479,0.148-1.297,0.13-2.323,0.083c-2.452-0.111-6.101-0.376-9.224,1.09
	c-21.736,1.231-43.426,4.303-65.059,7.868c-0.204-0.338-0.421-0.672-0.658-0.994c-3.168-4.287-9.486-10.63-9.114-12.562
	c0.375-1.932,1.013-2.365,4.66-3.997c3.645-1.632,6.105-1.155,7.922-1.362c1.816-0.205,4.389-2.601,3.585-4.76
	c-0.804-2.158-5.099-2.323-8.055-3.117c-2.551-0.686-3.35-1.448-4.478-1.864c0.322-0.504,0.938-0.929,2.078-1.217
	c3.618-0.913,4.255,0.1,6.614-2.059c2.36-2.159,1.922-0.463,1.896-3.196c-0.026-2.732-0.538-4.667-0.538-4.667
	s-1.026,0.134-1.572,2.089c-0.543,1.954-0.703,3.926-1.854,2.702c-1.15-1.224-1.257-2.97-1.468-0.729
	c-0.212,2.242,0.174,2.538-1.442,2.003c-1.616-0.536-2.902-1.063-1.392-1.995c1.516-0.932,3.209-1.661,4.081-6.167
	c0.871-4.507-0.162-6.043-0.162-6.043s-2.623,2.943-2.04,3.946c0.582,1.003,1.213,0.903,0.06,1.125
	c-1.154,0.222-2.32-0.339-2.317-1.507c0.005-1.168-2.224-1.988-2.25-0.992c-0.025,0.997-2.037,1.053-0.243,2.402
	c1.794,1.35,3.489,2.624,2.217,4.324c-1.274,1.703-2.502,1.743-2.375,3.381c0.126,1.639,0.813,2.106-0.723,2.588
	c-1.537,0.482-2.378,0.225-2.568,1.507c-0.058,0.395-0.094,0.856-0.114,1.304c-0.867-0.232-1.739-0.43-2.465-0.496
	c-0.804-0.817-1.473-1.726-1.439-2.698c0.074-2.102-1.494-3.463-1.189-6.186c0.306-2.725,0.665-7.441,2.535-9.083
	c1.872-1.642,2.121-2.929,5.402-4.967c3.279-2.037,3.721-7.183,3.721-7.183s-2.152-0.64-2.979,0.48
	c-0.826,1.121-1.513,2.658-1.957,1.514c-0.445-1.144,0.771-1.687-0.025-2.454c-0.795-0.766-2.222-1.71-2.222-1.71
	s-0.207,1.352,0.443,2.869c0.65,1.518,1.185,1.62,0.258,2.11c-0.927,0.489-1.994,0.838-2.241-1.324
	c-0.246-2.164,1.057-2.301-0.305-3.009c-1.362-0.71-3.314-2.09-3.314-2.09s-0.762,1.634,0.243,3.331
	c1.003,1.698,2.177,1.368,2.291,2.502c0.113,1.135,1.086,1.269-0.188,2.691c-1.276,1.424-1.503,2.604-2.09,1.043
	c-0.586-1.56,0.313-1.609-1.041-2.928c-1.355-1.321-1.343-2.82-1.343-2.82s-1.307,1.306-0.438,3.422
	c0.864,2.115,1.842,2.806,2.135,3.584c0.293,0.781,1.833,2.86,0.368,4.413c-1.469,1.554-2.147,2.203-2.976,1.318
	s-2.015,0.005-2.015,0.005l-0.001,0.002c0-0.511-0.284-1.309,0.763-2.142c1.574-1.254,1.155-3.672,1.155-3.672
	s-0.236-0.214-1.253,1.314c-1.018,1.528-0.511,2.351-1.679,2.069c-1.164-0.281-1.715-0.888-0.599-2.064
	c1.115-1.175,0.819-2.513,0.819-2.513s-1.444-0.279-1.992,1.118c-0.269,0.683-0.517,1.064-0.701,1.275
	c-0.192,0.22-0.314,0.254-0.314,0.254s-0.823-0.048-0.343-1.959c0.48-1.911-2.67-1.406-3.138-2.722
	c-0.467-1.315-0.978-3.251-2.933-2.906c-1.954,0.345-2.052,0.272-2.052,0.272s0.014,2.229,1.823,2.913s0.576,1.614,0.916,3.016
	c0.338,1.401,1.019,0.754,0.622,2.514c-0.396,1.76-0.092,2.766-1.448,2.614c-1.358-0.152-1.728,0.892-2.37-1.517
	c-0.644-2.407,0.177-2.358-0.939-3.465c-1.119-1.107-1.48-2.68-1.48-2.68s-0.799,2.128-0.257,3.624
	c0.542,1.496,1.112,0.27,1.25,1.856c0.138,1.585,0.194,2.153,0.712,2.92c0.519,0.768,1.971,0.715,1.966,1.883
	s-2.114,2.04-2.184,3.251c-0.067,1.211,0.968,1.022-1.428,0.782c-2.396-0.242-2.646,0.489-3.532-1.242
	c-0.888-1.729-2.07-1.068-2.437-1.751c-0.368-0.684,0.212-1.963-1.468-2.456c-1.681-0.492-1.844-0.802-1.907-0.479
	c-0.06,0.321,0.121,2.25,1.279,2.863c1.157,0.614,1.267,0.913,1.267,0.913s-0.81,0.734-2.682,0.372
	c-1.871-0.362-4.247,2.74-4.247,2.74s2.398,1.077,4.234,0.486c1.835-0.591,1.517-2.101,3.335-1.749
	c1.819,0.352,0.851,0.777,2.742,1.032c1.893,0.254,1.101,2.049,1.995,3.168c0.893,1.119,2.1,0.629,2.092,3.244
	s1.203,6.689,2.482,8.105c1.28,1.418,3.026,2.146,2.314,2.954c-0.712,0.809-0.603,1.108-2,1.728c-1.396,0.621-0.78,1.742-0.78,1.742
	s2.242,1.603,3.57-0.088c1.324-1.693,0.783-2.909,3.835-2.041c0.487,0.139,0.993,0.247,1.503,0.33
	c1.467,0.238,2.955,0.271,4.004,0.251c-0.979,4.152-2.14,9.553-1.896,10.861c0.407,2.194,1.986,5.505,0.216,6.053
	c-0.479,0.148-1.299,0.13-2.324,0.083c-2.769-0.126-7.064-0.457-10.405,1.739c-4.578,3.01-7.44,6.908-12.182,7.884
	c-4.739,0.975-8.924,1.946-8.924,1.946s-3.105-1.157-4.811-0.374s-1.83,1.427-3.115,1.178c-1.284-0.249-2.636-1.29-3.931,0.242
	c-1.295,1.529-1.675,2.346,0.571,2.781c0.13,0.025,0.249,0.051,0.374,0.077c-2.873,0.416-5.745,0.822-8.615,1.202
	c-3.027,0.396-6.058,0.775-9.092,1.146c-0.424,0.005-0.872,0.067-1.333,0.167c-3.1,0.373-6.205,0.724-9.311,1.06
	c-0.598-2.396-1.663-6.253-4.254-9.107c-3.581-3.946-10.507-9.623-10.329-11.582c0.178-1.958,0.77-2.454,4.233-4.444
	c3.464-1.99,5.96-1.763,7.746-2.149c1.786-0.387,4.105-3.031,3.088-5.098c-1.016-2.067-5.308-1.799-8.326-2.292
	c-2.608-0.426-3.479-1.104-4.644-1.404c0.271-0.537,0.84-1.019,1.946-1.42c3.507-1.272,4.243-0.328,6.374-2.713
	c2.132-2.387,1.866-0.653,1.565-3.371c-0.301-2.716-1.006-4.589-1.006-4.589s-1.006,0.237-1.352,2.237
	c-0.345,1.999-0.306,3.977-1.574,2.874c-1.268-1.102-1.548-2.829-1.534-0.578c0.014,2.251,0.429,2.507-1.235,2.138
	c-1.662-0.371-2.994-0.765-1.582-1.845c1.411-1.079,3.023-1.974,3.438-6.544c0.416-4.573-0.769-5.997-0.769-5.997
	s-2.313,3.192-1.632,4.131c0.68,0.939,1.296,0.776,0.172,1.113c-1.125,0.336-2.343-0.104-2.457-1.267
	c-0.113-1.162-2.412-1.754-2.338-0.759c0.073,0.993-1.919,1.251,0,2.413c1.919,1.162,3.734,2.259,2.639,4.08
	c-1.095,1.822-2.313,1.985-2.023,3.603c0.291,1.619,1.021,2.014-0.459,2.647c-1.48,0.635-2.342,0.462-2.402,1.758
	c-0.019,0.399-0.009,0.862,0.016,1.31c-0.885-0.145-1.771-0.254-2.502-0.247c-0.882-0.733-1.639-1.568-1.702-2.54
	c-0.138-2.098-1.836-3.294-1.805-6.034c0.029-2.741-0.088-7.471,1.608-9.292c1.698-1.822,1.816-3.127,4.875-5.483
	c3.058-2.357,2.98-7.521,2.98-7.521s-2.206-0.42-2.916,0.777s-1.238,2.795-1.795,1.702c-0.558-1.092,0.597-1.755-0.271-2.438
	c-0.869-0.683-2.383-1.479-2.383-1.479s-0.069,1.366,0.73,2.81s1.341,1.493,0.469,2.073c-0.874,0.58-1.899,1.036-2.363-1.093
	c-0.464-2.127,0.818-2.395-0.608-2.963c-1.425-0.568-3.507-1.745-3.507-1.745s-0.591,1.703,0.578,3.29
	c1.168,1.587,2.304,1.142,2.53,2.26c0.228,1.118,1.209,1.152,0.083,2.696c-1.125,1.544-1.232,2.741-1.973,1.248
	c-0.74-1.494,0.146-1.633-1.333-2.81c-1.48-1.177-1.617-2.67-1.617-2.67s-1.169,1.43-0.094,3.447
	c1.075,2.019,2.116,2.607,2.486,3.354c0.37,0.747,2.111,2.66,0.808,4.353c-1.303,1.691-1.914,2.405-2.826,1.609
	c-0.913-0.796-2.003,0.208-2.003,0.208l-0.002,0.001c-0.052-0.509-0.414-1.273,0.543-2.208c1.441-1.405,0.78-3.769,0.78-3.769
	s-0.255-0.189-1.113,1.434c-0.857,1.624-0.272,2.39-1.46,2.227c-0.346-0.047-0.642-0.127-0.864-0.248
	c-0.525-0.286-0.636-0.806,0-1.667l0.06-0.079c0.992-1.282,0.563-2.583,0.563-2.583s-0.275-0.024-0.622,0.066
	c-0.449,0.117-1.019,0.429-1.248,1.246c-0.404,1.445-0.858,1.623-0.858,1.623s-0.823,0.035-0.537-1.914
	c0.285-1.949-2.797-1.132-3.394-2.394c-0.598-1.262-1.303-3.136-3.212-2.595c-1.909,0.539-2.013,0.475-2.013,0.475
	s0.237,2.217,2.107,2.715c1.869,0.499,0.735,1.548,1.213,2.908c0.479,1.36,1.091,0.648,0.874,2.438
	c-0.218,1.791,0.186,2.761-1.18,2.746c-1.367-0.013-1.628,1.059-2.511-1.27c-0.883-2.33-0.06-2.365-1.282-3.354
	c-1.224-0.988-1.742-2.517-1.742-2.517s-0.582,2.197,0.109,3.631c0.69,1.434,1.134,0.158,1.43,1.72
	c0.296,1.563,0.409,2.123,1.002,2.835c0.591,0.712,2.032,0.513,2.145,1.675c0.114,1.163-1.898,2.243-1.845,3.455
	c0.054,1.211,1.066,0.92-1.342,0.921c-2.406,0-2.585,0.752-3.64-0.879c-1.056-1.633-2.167-0.855-2.6-1.498
	c-0.435-0.644,0.015-1.975-1.707-2.295c-1.723-0.322-1.915-0.613-1.944-0.287c-0.029,0.327,0.345,2.227,1.559,2.721
	c1.213,0.495,1.353,0.78,1.353,0.78s-0.731,0.812-2.629,0.64c-1.899-0.172-3.953,3.154-3.953,3.154s2.497,0.83,4.263,0.058
	c1.766-0.773,1.299-2.242,3.143-2.075c1.843,0.167,0.922,0.688,2.832,0.751c1.909,0.063,1.302,1.928,2.304,2.953
	c1.001,1.023,2.151,0.414,2.407,3.016c0.256,2.604,1.87,6.535,3.285,7.815c1.415,1.281,3.225,1.83,2.6,2.706
	c-0.626,0.876-0.489,1.163-1.816,1.921c-1.328,0.757-0.602,1.81-0.602,1.81s2.394,1.37,3.543-0.446
	c1.149-1.817,0.489-2.974,3.61-2.416l0.279,0.046c1.861,0.284,3.922,0.137,5.258-0.022c-0.555,4.23-1.166,9.721-0.794,10.997
	c0.627,2.142,2.531,5.278,0.823,6.001c-0.853,0.361-2.91,0.271-5.287,0.522c-2.374,0.251-5.067,0.843-7.193,2.57
	c-4.253,3.456-6.709,7.622-11.328,9.067c-1.261,0.396-2.478,0.785-3.584,1.145c-3.473-0.046-6.944-0.147-10.415-0.31
	c-18.054-0.903-36.64-3.496-53.466-10.428c0.297-1.33,0.77-2.737,1.539-4.289c1.699-3.432,3.819-5.754,5.545-7.235
	c1.812-1.553,3.188-2.179,3.188-2.179s-1.022-0.107-3.188,0.229c-2.881,0.448-7.784,1.686-14.993,5.02
	c-0.879,0.406-1.793,0.845-2.742,1.316c-0.533,0.266-1.078,0.539-1.633,0.826l-0.168,0.088c-0.017,0.008-0.031,0.016-0.048,0.024
	c-0.258-0.152-0.523-0.291-0.781-0.447c-0.25,0.41-0.5,0.821-0.751,1.232c-1.87,0.955-3.534,1.785-5.009,2.524
	c-0.736,0.369-1.429,0.717-2.079,1.048l-11.479-3.338l-3.471-1.009c-0.164-0.71-0.508-1.568-1.274-3.109
	c-1.233-2.481-0.492-3.813-2.652-2.645l5.487-20.747l-2.013-0.732l-3.944,21.747l-0.173,0.102c-2.95,1.762-4.509,0.249-4.267,1.808
	c0.242,1.559,2.106,1.508-0.893,2.607c-3,1.1-3.133,2.569-4.682,0.947c-0.504-0.528-0.921-1.13-1.41-1.819
	c0.161-1.268,0.612-2.656,1.595-3.967c2.21-2.946-0.21-3.282-2.79-4.855c-0.893-0.543-1.804-1.237-2.549-2.236
	c-0.893-1.198-2.001-1.896-3.108-2.29c-0.39-0.138-0.78-0.24-1.159-0.311c-0.095-0.469,0.53-0.408,1.159-0.485
	c0.422-0.052,0.848-0.167,1.061-0.546c0.312-0.554-0.307-1.53-1.061-2.441c-0.669-0.809-1.444-1.566-1.771-1.931
	c-0.695-0.776-2.353-1.805-1.643-3.003c0.711-1.198,1.701-1.272,1.372-3.662c-0.33-2.389,0.754-3.497-1.855-3.678
	c-0.669-0.047-1.36-0.084-2.033-0.094c-1.952-0.029-3.75,0.181-4.404,1.101c-0.878,1.236-3.458-0.479-3.458-0.479
	s-2.996-1.578-8.619-1.445c-4.182-0.295-4.237-1.912-6.165-2.335c-3.134-0.688-7.09-0.028-9.173,1.277
	c-0.399,0.25-0.747,0.466-1.062,0.66c-0.274-1.618-1.672-2.852-3.366-2.852c-1.891,0-3.424,1.533-3.424,3.424
	c0,1.891,1.533,3.424,3.424,3.424c1.363,0,2.53-0.803,3.081-1.956c2.588,0.779,6.589,2.237,7.306,3.986
	c0.111,0.27,0.229,0.561,0.349,0.861c1.037,2.607,2.306,6.074,2.306,6.074s-2.146-0.715-3.296-2.559
	c-0.547-0.877-3.546-2.989-3.966-3.416c-1.167-1.187-5.322-2.317-9.309-2.919c-4.47-0.186-5.233-0.055-8.778,4.21
	c0,0-12.387-3.312-13.333,2.29c-0.945,5.602,5.405,7.928,5.405,7.928l4.598,9.604l-1.439,3.807c0,0-2.129,1.775-2.464,7.87
	c-0.334,6.095,0.1,8.541,0.1,8.541s-7.298-3.944-8.896-5.619c-1.598-1.677-1.598-1.677-1.598-1.677s6.65,18.322,8.347,26.132
	c1.698,7.81-0.154,20.986,3.378,27.869c3.532,6.883,9.588,12.463,9.588,12.463s-0.99-0.45-4.603,5.588
	c-3.611,6.038-3.878,11.391-0.91,16.05c0.167,0.261,0.333,0.517,0.501,0.769c-4.355,0.592-9.035,1.248-9.449,1.382
	c-4.193,1.595,0.335,2.334,0.335,2.334l10.854-1.233c2.14,2.892,3.925,4.771,3.925,4.771s-20.65,0.869-21.717,4.174
	c-1.065,3.305-2.339,6.483,4.687,5.034c2.667-0.55,12.775-2.61,25.281-5.095c3.344-0.664,6.86-1.358,10.452-2.063
	c3.049-0.597,6.152-1.202,9.25-1.8c5.548-1.071,11.081-2.122,16.261-3.082c2.038-0.377,4.022-0.74,5.93-1.085
	c1.975-0.356,3.867-0.692,5.657-1.003c4.418-0.769,8.206-1.385,11.022-1.774c3.398-0.469,6.551-0.822,9.464-1.127
	c5.277-0.555,9.776-0.958,13.559-1.614c2.503-0.435,4.695-0.982,6.59-1.759c0.634-0.26,1.233-0.543,1.801-0.859
	c1.017-0.565,1.929-1.228,2.742-2.012c0.246-0.236,0.48-0.483,0.708-0.742c2.935-3.348,4.492-5.352,5.398-7.137
	c2.045-0.285,5.609-0.815,8.887-1.482c2.358-0.48,4.566-1.034,5.958-1.614c4.321-1.802,7.775-4.891,10.32-9.434
	c2.547-4.543,1.279-11.077-3.081-18.497c-3.102-5.274-7.799-8.81-10.255-10.413c0.596-1.817,0.412-4.207-2.688-7.937l-0.254-0.304
	c-5.269-6.238-8.297-6.723-7.491-13.239c0.555-4.479-0.341-7.835,0.099-11.716c16.917,6.892,35.555,9.503,53.685,10.411
	c0.417,0.019,0.835,0.019,1.252,0.037c-0.241,0.068-0.468,0.158-0.669,0.277c-1.619,0.949-1.679,1.603-2.98,1.485
	c-1.302-0.119-2.753-1.019-3.887,0.635c-1.134,1.652-1.43,2.503,0.848,2.711c2.28,0.207,3.889,0.571,3.889,0.571
	s-1.254,2.959-0.731,5.641c0.523,2.681,2.446,4.393,1.864,5.984c-0.583,1.594-2.477,1.971-3.602,2.307
	c-1.125,0.338-2.605-0.236-4.953,0.319c-2.349,0.555-1.215,6.146-5.624,8.927c-4.411,2.782-5.813,4.96-8.505,4.496
	c-2.695-0.464-3.059-1.265-3.691-0.335c-0.631,0.931-2.94,4.672-1.5,6.887c1.44,2.216,2.605,1.445,2.605,1.445
	s2.92-3.247,4.904-4.604c1.983-1.357,5.684-4.751,7.283-5.484c1.598-0.733,2.545-0.318,2.545-0.318s-2.536,7.451-5.545,8.056
	c-3.009,0.606-4.736,0.338-5.665,0.913c-0.927,0.575-2.446,2.851-1.381,5.582c1.065,2.73,2.96,3.56,3.71,2.531
	c0.749-1.03,3.167-3.553,5.831-6.384s4.934-7.344,5.742-9.026c0.81-1.683,1.659-2.593,4.807-2.307
	c3.148,0.285,9.175,1.381,11.228,0.469c2.052-0.911,5.891-5.83,8.96-8.295c2.493-2.002,7.877-3.235,15.877-5.194
	c1.848-0.452,3.834-0.944,5.958-1.493c11.317-2.924,13.341-5.923,13.341-5.923l9.196,1.163c0,0,0.828,1.721-0.474,2.812
	c-1.304,1.088-5.103,5.572-6.642,5.651c-1.538,0.08-5.11,0.853-5.288,2.813c-0.178,1.959-0.128,3.829,0.938,5.353
	c1.064,1.523,3.799,0.344,5.742-2.991c1.943-3.334,5.832-6.384,6.907-7.383c1.076-1,4.38-4.871,5.487-6.197
	c1.105-1.325,3.442-2.979,2.416-4.938c-1.026-1.958-1.332-3.413-1.332-3.413s4.046-3.584,3.937-2.385
	c-0.109,1.195-2.272,8.406-2.272,8.406s-1.245,3.84-1.305,5.7c-0.059,1.86-1.598,1.336-2.18,1.722
	c-0.583,0.386-2.684,1.842-1.509,4.583c0.072,0.168,0.13,0.303,0.196,0.455c-0.154,0.451-0.272,0.908-0.305,1.357v0.555
	c0.029,0.378,0.122,0.744,0.298,1.086c1.211,2.349,2.448,1.697,2.448,1.697s3.23-2.937,5.341-4.086
	c2.109-1.15,6.132-4.156,7.796-4.725c1.664-0.569,2.564-0.06,2.564-0.06s-3.272,7.158-6.327,7.458
	c-3.056,0.299-4.747-0.139-5.727,0.34c-0.979,0.478-2.721,2.589-1.936,5.413c0.786,2.824,2.586,3.841,3.436,2.892
	c0.851-0.949,3.509-3.217,6.444-5.766c2.936-2.548,5.647-6.81,6.621-8.403c0.975-1.593,1.91-2.414,5.013-1.812
	c3.103,0.601,8.99,2.297,11.124,1.596c2.134-0.7,6.447-5.209,9.748-7.353s10.844-2.688,22.397-4.459l0.088-0.013
	c11.479-1.771,13.78-4.538,13.78-4.538l9.031,2.083c0,0,0.652,1.794-0.753,2.748c-1.406,0.952-5.636,5.031-7.176,4.956
	c-1.538-0.075-5.171,0.335-5.544,2.267s-0.514,3.798,0.394,5.419c0.907,1.623,3.745,0.724,6.014-2.398
	c2.271-3.123,6.445-5.766,7.615-6.652c1.17-0.887,4.848-4.406,6.081-5.614c1.232-1.208,3.726-2.619,2.9-4.67
	c-0.823-2.052-0.981-3.53-0.981-3.53s4.385-3.159,4.155-1.979c-0.227,1.182-3.104,8.136-3.104,8.136s-1.624,3.695-1.869,5.539
	c-0.247,1.846-1.727,1.169-2.344,1.495c-0.618,0.326-2.856,1.563-1.964,4.408c0.893,2.844,1.013,3.369,2.825,2.606
	c0.228-0.096,0.453-0.196,0.677-0.301c-0.104,0.351-0.186,0.702-0.214,1.05v0.599c0.031,0.372,0.126,0.73,0.299,1.067
	c1.209,2.349,2.446,1.698,2.446,1.698s3.231-2.937,5.341-4.087c2.109-1.149,6.134-4.155,7.797-4.724
	c1.664-0.569,2.564-0.061,2.564-0.061s-3.271,7.159-6.326,7.458c-3.055,0.298-4.747-0.14-5.726,0.339
	c-0.982,0.478-2.723,2.59-1.938,5.414c0.787,2.823,2.586,3.84,3.437,2.892s3.509-3.216,6.445-5.766
	c2.934-2.549,5.645-6.811,6.62-8.403c0.974-1.593,1.91-2.413,5.013-1.813s8.99,2.296,11.125,1.596
	c2.132-0.699,6.446-5.208,9.747-7.352c3.302-2.144,10.843-2.688,22.396-4.459l0.088-0.014c11.479-1.771,13.782-4.538,13.782-4.538
	l9.031,2.082c0,0,0.65,1.797-0.755,2.749c-1.406,0.953-5.635,5.031-7.176,4.956c-1.538-0.076-5.169,0.335-5.543,2.267
	c-0.374,1.931-0.514,3.797,0.395,5.419c0.906,1.622,3.743,0.725,6.015-2.398c2.268-3.123,6.442-5.765,7.613-6.653
	c1.17-0.886,4.847-4.404,6.081-5.613c1.232-1.209,3.725-2.619,2.9-4.67c-0.822-2.052-0.982-3.53-0.982-3.53s4.386-3.159,4.157-1.979
	c-0.228,1.181-3.105,8.138-3.105,8.138s-1.624,3.694-1.869,5.539c-0.246,1.844-1.728,1.168-2.345,1.494
	c-0.618,0.325-2.855,1.563-1.964,4.407c0.894,2.844,1.014,3.368,2.828,2.606c1.068-0.449,2.089-0.993,2.873-1.811
	c-0.616,1.192-1.001,2.537-0.488,3.68c1.077,2.412,2.349,1.832,2.349,1.832s3.39-2.752,5.56-3.784
	c2.172-1.031,6.355-3.808,8.048-4.282c1.693-0.476,2.565,0.081,2.565,0.081s-3.669,6.966-6.734,7.095
	c-3.066,0.129-4.731-0.404-5.736,0.02c-1.006,0.423-2.86,2.434-2.234,5.298c0.627,2.862,2.37,3.978,3.271,3.077
	c0.901-0.898,3.683-3.016,6.756-5.397c3.071-2.382,6.016-6.486,7.077-8.022c1.061-1.536,2.041-2.303,5.107-1.53
	c3.064,0.772,8.849,2.793,11.018,2.213c2.169-0.581,6.728-4.842,10.142-6.799c3.417-1.957,10.978-2.082,22.611-3.206
	c1.248-0.121,2.389-0.258,3.436-0.409c8.697-1.254,10.665-3.365,10.665-3.365l8.9,2.583c0,0,0.552,1.83-0.906,2.702
	c-1.455,0.873-5.907,4.71-7.439,4.549s-5.181,0.046-5.662,1.954c-0.48,1.909-0.723,3.764,0.092,5.434
	c0.815,1.671,3.699,0.932,6.14-2.06c2.438-2.992,6.754-5.398,7.973-6.218c1.218-0.82,5.085-4.128,6.384-5.267
	c1.3-1.138,3.864-2.407,3.156-4.502c-0.709-2.094-0.784-3.579-0.784-3.579s4.555-2.909,4.261-1.744
	c-0.294,1.167-3.553,7.951-3.553,7.951s-1.829,3.598-2.177,5.427c-0.349,1.828-1.788,1.071-2.423,1.361
	c-0.634,0.292-2.938,1.401-2.204,4.292c0.732,2.89,0.823,3.419,2.675,2.759c1.853-0.66,3.6-1.573,4.318-3.759
	c0.719-2.185,2.841-10.161,5.204-13.735c2.214-3.352,3.938-5.538,3.973-7.327v-0.089C561.692,76.419,561.689,76.329,561.68,76.244z
	 M121.309,135.973c0.15,0.212,0.297,0.43,0.439,0.655c0.948,1.509,1.545,2.508,1.786,3.239c0.164,0.495,0.165,0.867,0,1.193
	c-0.229,0.452-0.778,0.812-1.649,1.286c-0.25,0.136-0.623,0.268-1.093,0.395c-0.503,0.135-1.114,0.265-1.801,0.389
	c-0.337,0.06-0.694,0.119-1.063,0.177l1.063-2.307l1.801-3.906L121.309,135.973z M112.401,131.794l2.767-1.031
	c0,0,1.854,0.864,3.823,2.634c0.354,0.318,0.711,0.665,1.064,1.042l-1.064,1.981l-3.901,7.272c-0.891,0.108-1.8,0.207-2.688,0.297
	c-3.696,0.375-7.023,0.591-7.023,0.591s-0.444,0.069-0.256-1.999c0.187-2.068-0.375-7.936-0.375-7.936L112.401,131.794z
	 M90.689,74.332c2.573-0.04,4.884-1.368,4.844-2.743c-0.005-0.172-0.01-0.334-0.019-0.489l3.329,0.816l10.987,2.696
	c-6.321,3.244-8.604,4.938-10.987,10.118c-0.432,0.94-0.869,1.993-1.332,3.192c-2.465,6.377-0.523,13.57,1.332,18.155
	c1.158,2.859,2.281,4.705,2.281,4.705s-0.931-0.967-2.281-2.548c-3.495-4.093-9.802-12.301-10.03-18.476
	c-0.318-8.56,0.075-5.824,1.831-7.092c1.757-1.267,3.868-4.037,2.186-5.397c-1.682-1.36-4.973-1.274-4.973-1.274
	S88.113,74.372,90.689,74.332z M102.705,142.692c0,0-1.042,0.661-3.862,0.773c-1.058,0.043-2.365,0.008-3.962-0.167
	c-5.85-0.64-4.489-1.176-5.18-4.421c-0.691-3.246,6.532-3.248,6.532-3.248c1.005-0.264,1.87-0.388,2.61-0.4
	C104.958,135.127,102.705,142.692,102.705,142.692z M78.356,138.268c3.179-0.373,6.884,0.315,6.884,0.315s1.746,6.084,4.508,8.201
	c2.264,1.733,7.335,1.66,9.094,1.578c0.389-0.019,0.616-0.039,0.616-0.039s-0.209,0.15-0.616,0.472
	c-0.729,0.576-2.092,1.699-4.012,3.498c-2.991,2.801-7.668,2.486-7.668,2.486s0,0-1.104-5.917c-0.661-3.543-4.627-6.125-7.703-7.627
	c-2.06-1.006-3.722-1.53-3.722-1.53C75.452,138.86,76.846,138.444,78.356,138.268z M41.258,144.185
	c0.177-0.527,0.38-1.072,0.619-1.636c0,0,4.299-0.347,8.632-0.648c4.024-0.28,8.078-0.521,8.753-0.408
	c1.401,0.238,1.381,0.455,1.381,0.455s-6.671,2.313-10.135,5.883c-0.567,0.585-1.049,1.202-1.401,1.85
	c-2.496,4.602-4.539,7.819-4.539,7.819s-2.079-1.198-3.311-3.967C40.311,151.401,39.868,148.341,41.258,144.185z M31.761,172.029
	c-0.32-0.029-0.64-0.063-0.955-0.109c-2.673-0.377-5.006-1.345-4.521-3.46c0,0,2.115-0.657,4.521-1.341
	c2.559-0.727,5.444-1.483,6.461-1.503c1.973-0.04,3.907,0.354,3.907,0.354S34.8,172.305,31.761,172.029z M42.083,163.199
	l-0.824,0.082c-1.741,0.181-6.001,0.664-10.452,1.491c-0.306,0.057-0.612,0.114-0.919,0.174c-6.126,1.199-6.217,0.972-8.751-1.232
	c-2.536-2.206-1.775-5.758-0.394-8.925c1.381-3.167,6.097-5.703,8.328-4.952c2.229,0.752-0.474,2.811-0.474,2.811
	s-1.787,2.8,1.322,3.522c0.329,0.076,0.624,0.114,0.888,0.115c2.233,0.01,2.312-2.583,2.851-6.361
	c0.303-2.131-1.242-3.508-2.851-4.351c-1.579-0.826-3.216-1.138-3.216-1.138l3.216-0.295l7.599-0.699c0,0-0.583,2.8-1.156,7.906
	c-0.426,3.797,2.488,6.804,4.009,8.097c0.524,0.446,0.883,0.687,0.883,0.687L42.083,163.199z M60.099,168.454l-9.59,1.544
	l-7.845,1.264c0,0,2.033-4.315,5.635-6.622c0.727-0.466,1.479-0.829,2.21-1.117c2.897-1.132,5.535-1.034,5.535-1.034l4.923,0.009
	L60.099,168.454z M59.468,159.729c-2.331,1.583-7.948,0.604-8.959,0.411l-0.158-0.032c0,0,0.047-0.187,0.158-0.53
	c0.422-1.298,1.784-4.83,5.181-8.862c3.577-4.248,9.28-5.101,11.08-5.268c0.359-0.034,0.563-0.041,0.563-0.041
	c-0.177,0.853-0.364,1.655-0.563,2.41C64.785,155.351,61.799,158.144,59.468,159.729z M78.356,160.666
	c-0.834,1.125-2.281,2.821-4.256,4.231c-0.448,0.319-0.919,0.599-1.401,0.844c-2.304,1.174-4.83,1.563-5.93,1.684
	c-0.356,0.039-0.563,0.048-0.563,0.048l0.563-1.382l2.11-5.179l3.82-0.547l5.657-0.812l0.835-0.12
	C79.191,159.433,78.906,159.926,78.356,160.666z M78.356,155.746l-0.152,0.086c-1.406,0.788-3.419,1.455-5.505,1.994
	c-2.081,0.539-4.233,0.952-5.93,1.239c-1.906,0.322-3.236,0.484-3.236,0.484s1.097-1.099,3.236-3.778l0.315-0.399
	c2.349-2.969,4.471-10.678,4.471-10.678s0.445,0.049,1.144,0.164c1.372,0.23,3.731,0.729,5.657,1.661
	c0.914,0.442,1.728,0.979,2.296,1.634C83.001,150.859,82.596,153.318,78.356,155.746z M123.534,153.991
	c-0.621,0.607-1.509,1.354-2.742,2.154c-0.533,0.346-1.132,0.703-1.801,1.061c-1.433,0.771-3.191,1.553-5.336,2.282
	c-0.395,0.134-0.813,0.267-1.254,0.396c-3.601,1.058-8.658,1.96-13.559,2.674c-8.075,1.177-15.725,1.841-15.725,1.841l4.411-6.404
	c2.179-0.365,6.436-1.009,11.314-1.733c4.366-0.647,9.23-1.358,13.559-1.986l6.59-0.952l1.801-0.26l2.742-0.396l1.261-0.18
	C124.795,152.488,124.463,153.085,123.534,153.991z M126.306,149.113c-0.357,0.719-1.35,1.111-2.771,1.4
	c-0.792,0.161-1.718,0.29-2.742,0.425c-0.573,0.075-1.175,0.154-1.801,0.241c-1.517,0.211-3.174,0.473-4.881,0.886
	c-0.544,0.132-1.116,0.251-1.708,0.357c-5.577,0.996-12.854,0.901-13.559,0.89l-0.057-0.002l0.057-0.056l5.114-5.072
	c0,0,4.025-0.355,8.444-0.738c2.254-0.195,4.612-0.395,6.59-0.559l1.801-0.147c0.764-0.061,1.416-0.112,1.912-0.146
	c0.295-0.021,0.571-0.035,0.83-0.043C126.839,146.442,127.175,147.359,126.306,149.113z M152.249,128.63
	c1.149,2.484,1.664,4.847,1.25,7.806c-0.621,4.443-2.024,6.62-6.927,10.017c-1.851,1.282-4.929,1.999-8.044,2.396
	c-2.871,0.364-5.773,0.455-7.775,0.465c0.11-0.568,0.205-1.176,0.3-1.855c0.559-3.995-6.284-13.188-7.517-16.661
	c-0.049-0.138-0.091-0.271-0.122-0.389l0.122-0.009l14.993-0.924L152.249,128.63z M138.527,116.137
	c0.594-0.59,1.006-1.077,1.165-1.419c1.821,1.398,8.188,6.425,10.384,9.995c0.383,0.624,0.741,1.221,1.074,1.805l-0.236-0.193
	l-12.388,1.147l-14.605,1.353C126.28,125.912,135.222,119.417,138.527,116.137z M190.227,88.63c0,0-0.082-0.021-0.202-0.047
	c0.104,0.003,0.209,0.006,0.313,0.009C190.272,88.614,190.227,88.63,190.227,88.63z M225.695,49.259
	c-1.262-0.365-2.689-0.752-3.847-0.997c-2.738-0.577-2.865-0.371-2.438,0.328c0.43,0.697,0.893,2.22,4.007,2.888
	c0,0-0.128,0.82-0.309,2.093c-1.989,0.355-4.239,0.586-5.679,0.2c-0.139-0.038-0.27-0.081-0.393-0.13
	c-2.852-1.136-4.291-0.938-6.442-6.181c-2.15-5.243-3.255-7.538-1.647-9.586c1.609-2.049,5.19-5.346,6.69-6.196
	c0.679-0.386,1.264-0.441,1.792-0.421c0.637,0.026,1.195,0.164,1.75-0.026c0.074-0.026,0.132-0.054,0.182-0.085
	c-0.06,0.435,0.125,1.086,1.433,1.603c2.165,0.854,2.481,1.597,2.757,2.774c0.276,1.177,1.593,2.339,1.026,4.976
	c-0.568,2.637-1.51,2.771-0.475,4.017c0.635,0.766,1.773,2.583,2.56,3.872C226.343,48.664,226.017,48.961,225.695,49.259z
	 M249.337,85.983c-0.024-0.058-0.051-0.137-0.078-0.215c1.253-0.136,2.503-0.285,3.756-0.427
	C251.164,86.286,249.699,86.819,249.337,85.983z M280.543,92.999c-0.741,1.527-2.663,1.712-3.816,1.934
	c-1.153,0.221-2.567-0.498-4.959-0.182c-2.393,0.316-1.826,5.993-6.493,8.317c-4.18,2.081-5.916,3.907-8.122,3.743
	c0.396-2.646,1.249-10.307,2.949-14.036c1.775-3.899,3.207-6.403,2.714-8.203c-0.038-0.137-0.118-0.254-0.187-0.378
	c2.042-0.255,4.085-0.504,6.123-0.771c3.865-0.511,7.733-1.066,11.604-1.641c-0.42,0.906-1.257,3.014-1.066,5.074
	C279.54,89.576,281.281,91.473,280.543,92.999z M327.305,40.925c-1.219-0.49-2.6-1.02-3.729-1.379
	c-2.664-0.85-2.812-0.657-2.455,0.081c0.357,0.737,0.664,2.301,3.694,3.276c0,0-0.208,0.804-0.518,2.051
	c-1.607,0.123-3.374,0.151-4.729-0.112c-0.507-0.098-0.954-0.238-1.317-0.427c-2.724-1.417-4.177-1.364-5.788-6.797
	c-1.613-5.433-2.481-7.827-0.675-9.704c1.807-1.878,5.701-4.798,7.279-5.494c0.175-0.077,0.341-0.134,0.501-0.177
	c1.286-0.344,2.138,0.304,3.067,0.089c0.076-0.019,0.137-0.04,0.189-0.068c-0.104,0.427,0.014,1.094,1.264,1.739
	c2.068,1.068,2.309,1.838,2.465,3.037c0.155,1.2,1.351,2.488,0.519,5.055c-0.829,2.566-1.779,2.604-0.874,3.949
	c0.555,0.825,1.507,2.747,2.157,4.108C328.011,40.398,327.655,40.661,327.305,40.925z M395.834,69.992
	c-4.739,0.976-8.922,1.947-8.922,1.947s-3.105-1.158-4.812-0.375c-1.705,0.783-1.831,1.426-3.114,1.179
	c-1.283-0.249-2.636-1.291-3.931,0.241c-1.296,1.531-1.675,2.347,0.57,2.781c2.247,0.436,3.81,0.961,3.81,0.961
	s-1.543,2.818-1.294,5.538c0.252,2.72,1.993,4.617,1.254,6.143c-0.739,1.527-2.662,1.711-3.814,1.933
	c-1.153,0.221-2.568-0.498-4.96-0.181c-2.393,0.317-1.826,5.992-6.493,8.317c-4.668,2.325-6.281,4.351-8.915,3.618
	c-1.179-0.328-1.874-0.668-2.36-0.876c0.682-2.717,2.28-10.06,4.311-13.538c2.158-3.701,3.835-6.048,3.523-7.888
	c-0.31-1.842-3.437-2.892-6.698-1.521c-3.262,1.373-6.439,2.874-6.852,1.569c-0.333-1.048-0.451-5.075-2.127-8.84
	c20.335-3.343,40.718-6.232,61.142-7.553C402.586,66.178,399.896,69.157,395.834,69.992z M426.16,36.332
	c-1.221-0.489-2.602-1.019-3.729-1.377c-2.667-0.851-2.813-0.658-2.457,0.08c0.355,0.738,0.663,2.3,3.694,3.276
	c0,0-0.208,0.804-0.517,2.052c-1.608,0.122-3.374,0.149-4.731-0.112c-0.505-0.099-0.954-0.239-1.317-0.427
	c-2.722-1.418-4.174-1.365-5.788-6.798c-1.612-5.433-2.481-7.826-0.675-9.704s5.702-4.797,7.279-5.493
	c0.176-0.077,0.341-0.134,0.501-0.177c1.286-0.342,2.138,0.305,3.067,0.088c0.076-0.018,0.137-0.04,0.19-0.067
	c-0.104,0.427,0.014,1.094,1.263,1.739c2.069,1.069,2.31,1.839,2.466,3.039c0.155,1.198,1.35,2.487,0.52,5.054
	c-0.829,2.567-1.779,2.605-0.876,3.95c0.558,0.826,1.507,2.748,2.159,4.109C426.864,35.806,426.51,36.069,426.16,36.332z
	 M523.103,59.262c-2.371,0.013-7.875-1.431-12.138,1.045c-4.739,2.75-7.815,6.483-12.604,7.193
	c-4.785,0.709-9.017,1.446-9.017,1.446s-3.036-1.328-4.782-0.642c-1.749,0.688-1.907,1.323-3.175,1.003
	c-1.268-0.319-2.562-1.434-3.939,0.022c-1.38,1.457-1.804,2.251,0.415,2.811c2.22,0.559,3.751,1.17,3.751,1.17
	s-1.699,2.727-1.601,5.458c0.099,2.73,1.731,4.72,0.909,6.203c-0.823,1.483-2.753,1.561-3.916,1.718
	c-1.164,0.157-2.535-0.64-4.942-0.457c-2.406,0.183-2.157,5.881-6.946,7.942s-6.513,3.994-9.102,3.116
	c-2.588-0.878-2.824-1.726-3.594-0.906c-0.217,0.233-0.607,0.682-1.023,1.241c0.066-0.172,0.136-0.342,0.186-0.533
	c0.599-2.221,2.271-10.302,4.432-14.003c2.158-3.701,3.834-6.049,3.522-7.89c-0.307-1.841-3.435-2.892-6.697-1.52
	c-3.262,1.372-6.438,2.873-6.853,1.567c-0.413-1.304-0.489-7.219-3.656-11.505c-0.419-0.566-0.894-1.17-1.4-1.794
	c12.21-1.207,24.365-3.661,36.468-5.235c8.373-1.081,16.828-1.945,25.282-1.768c6.77,0.156,13.843,0.921,19.988,3.967
	c0.229,0.109,0.475,0.215,0.711,0.323C523.284,59.241,523.213,59.261,523.103,59.262z M530.514,35.58
	c-1.191-0.558-2.541-1.164-3.646-1.584c-2.615-0.998-2.773-0.813-2.459-0.056c0.316,0.756,0.536,2.333,3.507,3.476
	c0,0-0.253,0.791-0.631,2.021c-1.405,0.028-2.928-0.021-4.183-0.259c-0.72-0.137-1.354-0.336-1.826-0.616
	c-2.639-1.567-4.092-1.595-5.399-7.109c-1.309-5.514-2.043-7.952-0.134-9.728c1.829-1.699,5.626-4.248,7.359-4.992
	c0.075-0.032,0.146-0.062,0.214-0.086c1.614-0.607,2.51,0.294,3.568,0.11c0.078-0.013,0.139-0.032,0.192-0.056
	c-0.126,0.42-0.045,1.092,1.166,1.807c2.006,1.182,2.201,1.964,2.292,3.169c0.089,1.207,1.21,2.559,0.237,5.076
	c-0.97,2.517-1.923,2.502-1.094,3.895c0.509,0.854,1.349,2.826,1.926,4.222C531.245,35.093,530.877,35.336,530.514,35.58z"/>
</svg>
