<?xml version="1.0" encoding="utf-8"?>
<!-- Generator: Adobe Illustrator 15.0.2, SVG Export Plug-In . SVG Version: 6.00 Build 0)  -->
<!DOCTYPE svg PUBLIC "-//W3C//DTD SVG 1.1//EN" "http://www.w3.org/Graphics/SVG/1.1/DTD/svg11.dtd">
<svg version="1.1" xmlns="http://www.w3.org/2000/svg" xmlns:xlink="http://www.w3.org/1999/xlink" x="0px" y="0px" width="200px"
	 height="200px" viewBox="0 0 200 200" enable-background="new 0 0 200 200" xml:space="preserve">
<g id="WhydahBox">
	<polygon fill="#234C63" points="40.303,20 10,50 10,200 190,200 190,50 159.303,20 	"/>
	<rect x="10" y="50" fill="#166A99" width="180" height="150"/>
	<polyline fill="#999999" points="10,110 60,50 70,20 80,20 80,50 10,130 	"/>
	<polyline fill="#999999" points="120,200 190,120 190,140 140,200 	"/>
	<polygon fill="#6F7172" points="60,50 80,50 80,20 70,20 	"/>
	<path fill="#4F5354" d="M67.143,39.141c0,0-7.143-4.143-7.143-14.142c0-14.142,4.285-20,10-10c5.714,10,2.857,24.142,2.857,24.142
		S74.286,34.999,80,24.999c5.715-10,20-10,20,0c0,10-21.429,14.142-21.429,14.142"/>
	<path fill="#6A7172" d="M72.857,39.141c0,0,7.143-4.143,7.143-14.142c0-14.142-4.285-20-10-10c-5.714,10-2.857,24.142-2.857,24.142
		S65.714,34.999,60,24.999c-5.715-10-20-10-20,0c0,10,21.429,14.142,21.429,14.142"/>
	<path fill="#999999" d="M67.143,40C67.143,40,50,30,50,20c0-10,5.714-20,11.429-10c5.714,10,11.428,30,11.428,30s0-20,5.714-30
		C84.286,0,90,10,90,20c0,10-11.429,20-11.429,20"/>
	<g>
		<polygon fill="#FFFFFF" points="101.094,61.521 79.491,83.124 90.293,93.924 101.094,83.124 111.895,93.924 122.695,83.124 		"/>
		<polygon fill="#FFFFFF" points="74.091,88.524 90.293,104.727 101.094,93.924 111.895,104.725 128.096,88.524 138.896,99.324 
			101.094,137.129 63.29,99.324 		"/>
		<g>
			<path fill="#FFFFFF" d="M69.576,166.236h-1.117l-4.266-14.991c-0.354-1.231-0.62-2.241-0.797-3.03
				c-0.142,0.771-0.344,1.657-0.604,2.659c-0.261,1-1.69,6.122-4.286,15.362h-1.144l-5.342-19.43h1.422l3.402,12.52
				c0.132,0.506,0.256,0.974,0.372,1.402c0.115,0.43,0.22,0.833,0.313,1.208c0.093,0.377,0.177,0.739,0.252,1.092
				c0.075,0.35,0.144,0.7,0.206,1.056c0.213-1.205,0.665-3.034,1.356-5.488l3.322-11.789h1.502l3.894,13.529
				c0.452,1.561,0.775,2.816,0.97,3.773c0.115-0.637,0.264-1.315,0.445-2.032c0.182-0.718,1.549-5.808,4.1-15.271h1.369
				L69.576,166.236z"/>
			<path fill="#FFFFFF" d="M88.116,166.236v-9.369c0-1.453-0.306-2.509-0.917-3.169c-0.612-0.661-1.56-0.99-2.844-0.99
				c-1.728,0-2.993,0.436-3.794,1.308c-0.802,0.874-1.203,2.289-1.203,4.247v7.974h-1.316v-20.679h1.316v6.578l-0.067,1.847h0.093
				c0.541-0.868,1.223-1.496,2.047-1.886c0.824-0.39,1.847-0.585,3.07-0.585c3.278,0,4.917,1.759,4.917,5.275v9.449H88.116z"/>
			<path fill="#FFFFFF" d="M91.677,151.789h1.355l3.057,8.109c0.93,2.489,1.519,4.168,1.768,5.036h0.08
				c0.372-1.143,0.979-2.849,1.821-5.117l3.056-8.028h1.356l-6.473,16.786c-0.523,1.365-0.961,2.287-1.316,2.766
				c-0.354,0.478-0.769,0.837-1.243,1.076s-1.047,0.358-1.721,0.358c-0.505,0-1.068-0.094-1.688-0.279v-1.143
				c0.514,0.142,1.067,0.214,1.661,0.214c0.452,0,0.851-0.107,1.196-0.32c0.346-0.212,0.658-0.543,0.937-0.989
				c0.279-0.448,0.603-1.156,0.97-2.126c0.368-0.972,0.604-1.603,0.711-1.896L91.677,151.789z"/>
			<path fill="#FFFFFF" d="M111.879,151.512c1.046,0,1.949,0.189,2.711,0.57s1.445,1.032,2.046,1.954h0.081
				c-0.054-1.116-0.081-2.21-0.081-3.282v-5.196h1.303v20.679h-0.863l-0.333-2.206h-0.106c-1.098,1.649-2.676,2.474-4.73,2.474
				c-1.995,0-3.518-0.621-4.572-1.862c-1.054-1.24-1.581-3.047-1.581-5.422c0-2.499,0.522-4.407,1.568-5.729
				C108.365,152.172,109.885,151.512,111.879,151.512z M111.879,152.708c-1.578,0-2.763,0.554-3.556,1.661s-1.189,2.716-1.189,4.824
				c0,4.094,1.591,6.14,4.771,6.14c1.63,0,2.826-0.474,3.588-1.422c0.762-0.947,1.143-2.512,1.143-4.691v-0.227
				c0-2.232-0.373-3.838-1.122-4.817C114.765,153.197,113.555,152.708,111.879,152.708z"/>
			<path fill="#FFFFFF" d="M131.562,166.236l-0.331-2.285h-0.107c-0.726,0.93-1.474,1.588-2.239,1.974
				c-0.767,0.386-1.672,0.579-2.718,0.579c-1.418,0-2.521-0.364-3.31-1.092c-0.789-0.727-1.183-1.731-1.183-3.015
				c0-1.41,0.587-2.505,1.761-3.285c1.174-0.778,2.873-1.19,5.097-1.234l2.752-0.081v-0.957c0-1.372-0.279-2.41-0.839-3.108
				c-0.557-0.7-1.457-1.052-2.697-1.052c-1.338,0-2.726,0.374-4.16,1.117l-0.491-1.143c1.587-0.745,3.153-1.116,4.705-1.116
				c1.586,0,2.771,0.411,3.555,1.236c0.783,0.824,1.176,2.107,1.176,3.854v9.607H131.562z M126.246,165.306
				c1.542,0,2.758-0.439,3.648-1.321c0.89-0.881,1.336-2.106,1.336-3.675v-1.422l-2.526,0.105c-2.029,0.098-3.476,0.415-4.339,0.951
				c-0.864,0.535-1.296,1.37-1.296,2.505c0,0.904,0.276,1.605,0.83,2.105C124.454,165.056,125.235,165.306,126.246,165.306z"/>
			<path fill="#FFFFFF" d="M147.283,166.236v-9.369c0-1.453-0.305-2.509-0.916-3.169c-0.612-0.661-1.561-0.99-2.844-0.99
				c-1.729,0-2.993,0.436-3.795,1.308c-0.802,0.874-1.202,2.289-1.202,4.247v7.974h-1.316v-20.679h1.316v6.578l-0.066,1.847h0.094
				c0.538-0.868,1.222-1.496,2.046-1.886s1.847-0.585,3.069-0.585c3.278,0,4.917,1.759,4.917,5.275v9.449H147.283z"/>
		</g>
	</g>
</g>
</svg>
